<svg width="98" height="28" viewBox="0 0 98 28" fill="none" xmlns="http://www.w3.org/2000/svg">
<path d="M97.4555 24.7709C97.4555 26.263 96.208 27.4717 94.6649 27.4717H3.33876C1.79638 27.4717 0.544434 26.263 0.544434 24.7709V3.23267C0.544434 1.74122 1.79638 0.52832 3.33876 0.52832H94.6641C96.208 0.52832 97.4548 1.74122 97.4548 3.23267L97.4555 24.7709Z" fill="black"/>
<path d="M94.3704 0.560875C96.0509 0.560875 97.4184 1.8795 97.4184 3.5V24.5C97.4184 26.1205 96.0509 27.4391 94.3704 27.4391H3.62963C1.94911 27.4391 0.581648 26.1205 0.581648 24.5V3.5C0.581648 1.8795 1.94911 0.560875 3.62963 0.560875H94.3704ZM94.3704 1.90735e-06H3.62963C1.63424 1.90735e-06 0 1.57588 0 3.5V24.5C0 26.4241 1.63424 28 3.62963 28H94.3704C96.3658 28 98 26.4241 98 24.5V3.5C98 1.57588 96.3658 1.90735e-06 94.3704 1.90735e-06Z" fill="#A6A6A6"/>
<path d="M21.8707 13.8489C21.8496 11.5928 23.7864 10.4952 23.875 10.4441C22.7781 8.90205 21.078 8.69135 20.4805 8.67455C19.0526 8.52965 17.6676 9.49845 16.9402 9.49845C16.1983 9.49845 15.0782 8.68855 13.871 8.71235C12.3175 8.73545 10.8642 9.60275 10.0671 10.9495C8.42217 13.6956 9.64898 17.7311 11.225 19.9508C12.0133 21.0379 12.9345 22.2517 14.1403 22.209C15.3199 22.1621 15.7606 21.4838 17.1841 21.4838C18.5946 21.4838 19.0083 22.209 20.2381 22.1817C21.5041 22.1621 22.3011 21.0897 23.0619 19.9928C23.973 18.7468 24.3388 17.5197 24.3533 17.4567C24.3236 17.4469 21.8946 16.553 21.8707 13.8489Z" fill="white"/>
<path d="M19.5477 7.21435C20.1822 6.44925 20.6163 5.40835 20.4958 4.35205C19.5775 4.39125 18.4291 4.96455 17.7677 5.71285C17.1826 6.37225 16.66 7.45305 16.795 8.46945C17.8265 8.54365 18.8857 7.96755 19.5477 7.21435Z" fill="white"/>
<path d="M35.6067 7.00658C35.6067 7.83048 35.3504 8.45068 34.8387 8.86718C34.3646 9.25148 33.691 9.44398 32.8184 9.44398C32.3858 9.44398 32.0155 9.42578 31.7056 9.38938V4.88768C32.1099 4.82468 32.5455 4.79248 33.0159 4.79248C33.8471 4.79248 34.4735 4.96678 34.896 5.31538C35.3693 5.70948 35.6067 6.27298 35.6067 7.00658ZM34.8046 7.02688C34.8046 6.49278 34.6579 6.08328 34.3646 5.79768C34.0714 5.51278 33.6431 5.36998 33.079 5.36998C32.8395 5.36998 32.6355 5.38538 32.4663 5.41758V8.83988C32.56 8.85388 32.7313 8.86018 32.9803 8.86018C33.5625 8.86018 34.0118 8.70408 34.3283 8.39188C34.6448 8.07968 34.8046 7.62468 34.8046 7.02688Z" fill="white"/>
<path d="M39.8599 7.72593C39.8599 8.23343 39.7096 8.64923 39.4091 8.97543C39.0941 9.31073 38.6766 9.47803 38.1554 9.47803C37.6531 9.47803 37.2531 9.31773 36.9547 8.99573C36.6571 8.67443 36.5083 8.26913 36.5083 7.78053C36.5083 7.26953 36.6615 6.85023 36.9693 6.52473C37.2771 6.19923 37.6908 6.03613 38.2121 6.03613C38.7144 6.03613 39.118 6.19643 39.4236 6.51773C39.714 6.82993 39.8599 7.23313 39.8599 7.72593ZM39.0708 7.74973C39.0708 7.44523 39.0026 7.18413 38.8668 6.96643C38.7071 6.70323 38.4799 6.57163 38.1845 6.57163C37.8789 6.57163 37.6466 6.70323 37.4868 6.96643C37.3504 7.18413 37.2829 7.44943 37.2829 7.76303C37.2829 8.06753 37.3511 8.32863 37.4868 8.54633C37.6516 8.80953 37.881 8.94113 38.1772 8.94113C38.4676 8.94113 38.6955 8.80743 38.8596 8.53933C39.0004 8.31743 39.0708 8.05423 39.0708 7.74973Z" fill="white"/>
<path d="M45.5627 6.10352L44.492 9.40332H43.7951L43.3516 7.97042C43.2391 7.61272 43.1476 7.25712 43.0765 6.90432H43.0627C42.9966 7.26692 42.9051 7.62182 42.7875 7.97042L42.3164 9.40332H41.6115L40.6047 6.10352H41.3865L41.7734 7.67222C41.8671 8.04322 41.944 8.39672 42.0057 8.73132H42.0195C42.0761 8.45552 42.1698 8.10412 42.3019 7.67922L42.7875 6.10422H43.4075L43.8728 7.64562C43.9853 8.02152 44.0768 8.38342 44.1472 8.73202H44.1682C44.2198 8.39252 44.2975 8.03062 44.4005 7.64562L44.8158 6.10422H45.5627V6.10352Z" fill="white"/>
<path d="M49.5067 9.40328H48.746V7.51328C48.746 6.93088 48.5166 6.63968 48.0563 6.63968C47.8306 6.63968 47.6484 6.71948 47.5068 6.87978C47.3667 7.04008 47.2956 7.22908 47.2956 7.44538V9.40258H46.5348V7.04638C46.5348 6.75658 46.5254 6.44228 46.5072 6.10208H47.1758L47.2113 6.61798H47.2324C47.321 6.45768 47.4531 6.32538 47.6266 6.21968C47.8327 6.09648 48.0636 6.03418 48.3162 6.03418C48.6356 6.03418 48.9013 6.13358 49.1125 6.33308C49.3753 6.57738 49.5067 6.94208 49.5067 7.42648V9.40328Z" fill="white"/>
<path d="M51.6046 9.40326H50.8446V4.58936H51.6046V9.40326Z" fill="white"/>
<path d="M56.0836 7.72593C56.0836 8.23343 55.9333 8.64923 55.6328 8.97543C55.3177 9.31073 54.8996 9.47803 54.3791 9.47803C53.8761 9.47803 53.4761 9.31773 53.1784 8.99573C52.8808 8.67443 52.732 8.26913 52.732 7.78053C52.732 7.26953 52.8852 6.85023 53.193 6.52473C53.5008 6.19923 53.9145 6.03613 54.435 6.03613C54.9381 6.03613 55.341 6.19643 55.6473 6.51773C55.9377 6.82993 56.0836 7.23313 56.0836 7.72593ZM55.2938 7.74973C55.2938 7.44523 55.2255 7.18413 55.0898 6.96643C54.9308 6.70323 54.7029 6.57163 54.4082 6.57163C54.1018 6.57163 53.8695 6.70323 53.7105 6.96643C53.5741 7.18413 53.5066 7.44943 53.5066 7.76303C53.5066 8.06753 53.5748 8.32863 53.7105 8.54633C53.8753 8.80953 54.1047 8.94113 54.4009 8.94113C54.6913 8.94113 54.9185 8.80743 55.0825 8.53933C55.2241 8.31743 55.2938 8.05423 55.2938 7.74973Z" fill="white"/>
<path d="M59.7655 9.40313H59.0824L59.0258 9.02303H59.0047C58.771 9.32613 58.4378 9.47803 58.0051 9.47803C57.6821 9.47803 57.4208 9.37793 57.224 9.17913C57.0455 8.99853 56.9562 8.77383 56.9562 8.50713C56.9562 8.10393 57.1304 7.79663 57.481 7.58383C57.8309 7.37103 58.3231 7.26673 58.9568 7.27163V7.21003C58.9568 6.77533 58.7202 6.55833 58.2461 6.55833C57.9086 6.55833 57.611 6.64023 57.354 6.80263L57.1994 6.32103C57.5173 6.13133 57.91 6.03613 58.3732 6.03613C59.2675 6.03613 59.7161 6.49113 59.7161 7.40113V8.61633C59.7161 8.94603 59.7328 9.20853 59.7655 9.40313ZM58.9757 8.26913V7.76023C58.1365 7.74623 57.7169 7.96813 57.7169 8.42523C57.7169 8.59743 57.7649 8.72623 57.8629 8.81233C57.9609 8.89843 58.0857 8.94113 58.2345 8.94113C58.4015 8.94113 58.5576 8.89003 58.6998 8.78853C58.8429 8.68633 58.9307 8.55683 58.9634 8.39793C58.9713 8.36223 58.9757 8.31883 58.9757 8.26913Z" fill="white"/>
<path d="M64.0884 9.40325H63.4133L63.3777 8.87335H63.3566C63.141 9.27655 62.7737 9.47815 62.2576 9.47815C61.8453 9.47815 61.5019 9.32205 61.2297 9.00985C60.9575 8.69765 60.8217 8.29235 60.8217 7.79465C60.8217 7.26056 60.9691 6.82795 61.2653 6.49755C61.552 6.18955 61.9033 6.03555 62.3215 6.03555C62.781 6.03555 63.1026 6.18466 63.2855 6.48355H63.3V4.58936H64.0615V8.51425C64.0615 8.83555 64.0702 9.13165 64.0884 9.40325ZM63.3 8.01165V7.46146C63.3 7.36626 63.2928 7.28926 63.279 7.23046C63.2361 7.05406 63.1439 6.90566 63.0038 6.78595C62.8623 6.66625 62.6917 6.60606 62.495 6.60606C62.2111 6.60606 61.989 6.71455 61.8257 6.93225C61.6638 7.14995 61.5818 7.42785 61.5818 7.76735C61.5818 8.09355 61.6594 8.35815 61.8155 8.56185C61.9803 8.77885 62.2024 8.88735 62.4805 8.88735C62.7302 8.88735 62.9298 8.79705 63.0815 8.61575C63.2282 8.44845 63.3 8.24685 63.3 8.01165Z" fill="white"/>
<path d="M70.5949 7.72593C70.5949 8.23343 70.4446 8.64923 70.1441 8.97543C69.829 9.31073 69.4124 9.47803 68.8904 9.47803C68.3888 9.47803 67.9888 9.31773 67.6897 8.99573C67.3921 8.67443 67.2433 8.26913 67.2433 7.78053C67.2433 7.26953 67.3965 6.85023 67.7043 6.52473C68.012 6.19923 68.4258 6.03613 68.9478 6.03613C69.4494 6.03613 69.8537 6.19643 70.1586 6.51773C70.449 6.82993 70.5949 7.23313 70.5949 7.72593ZM69.8065 7.74973C69.8065 7.44523 69.7383 7.18413 69.6025 6.96643C69.4421 6.70323 69.2156 6.57163 68.9195 6.57163C68.6146 6.57163 68.3823 6.70323 68.2218 6.96643C68.0854 7.18413 68.0178 7.44943 68.0178 7.76303C68.0178 8.06753 68.0861 8.32863 68.2218 8.54633C68.3866 8.80953 68.616 8.94113 68.9122 8.94113C69.2026 8.94113 69.4312 8.80743 69.5953 8.53933C69.7354 8.31743 69.8065 8.05423 69.8065 7.74973Z" fill="white"/>
<path d="M74.6854 9.40328H73.9254V7.51328C73.9254 6.93088 73.696 6.63968 73.235 6.63968C73.0093 6.63968 72.8271 6.71948 72.6862 6.87978C72.5454 7.04008 72.475 7.22908 72.475 7.44538V9.40258H71.7135V7.04638C71.7135 6.75658 71.7048 6.44228 71.6866 6.10208H72.3545L72.3901 6.61798H72.4111C72.5004 6.45768 72.6325 6.32538 72.8053 6.21968C73.0122 6.09648 73.2423 6.03418 73.4957 6.03418C73.8143 6.03418 74.08 6.13358 74.2913 6.33308C74.5548 6.57738 74.6854 6.94208 74.6854 7.42648V9.40328Z" fill="white"/>
<path d="M79.8054 6.65304H78.9677V8.25604C78.9677 8.66344 79.1165 8.86714 79.4113 8.86714C79.5477 8.86714 79.661 8.85594 79.7503 8.83284L79.7699 9.38934C79.6196 9.44394 79.4221 9.47124 79.179 9.47124C78.8784 9.47124 78.6447 9.38304 78.4755 9.20664C78.3057 9.03024 78.2215 8.73344 78.2215 8.31694V6.65304H77.7213V6.10354H78.2215V5.49874L78.967 5.28174V6.10284H79.8047V6.65304H79.8054Z" fill="white"/>
<path d="M83.8328 9.40326H83.0713V7.52726C83.0713 6.93576 82.842 6.63966 82.3824 6.63966C82.0296 6.63966 81.7886 6.81116 81.6565 7.15416C81.634 7.22626 81.6209 7.31446 81.6209 7.41806V9.40256H80.8609V4.58936H81.6209V6.57806H81.6355C81.875 6.21616 82.2184 6.03556 82.6634 6.03556C82.9784 6.03556 83.239 6.13496 83.4459 6.33446C83.7036 6.58296 83.8328 6.95256 83.8328 7.44116V9.40326Z" fill="white"/>
<path d="M87.9873 7.59708C87.9873 7.72868 87.9771 7.83928 87.959 7.92958H85.6774C85.6876 8.25578 85.7965 8.50428 86.0077 8.67648C86.2008 8.83048 86.4498 8.90748 86.7547 8.90748C87.0922 8.90748 87.4 8.85568 87.6773 8.75138L87.7964 9.26098C87.4719 9.39678 87.0901 9.46468 86.648 9.46468C86.118 9.46468 85.7006 9.31418 85.3986 9.01318C85.0952 8.71218 84.9449 8.30828 84.9449 7.80148C84.9449 7.30378 85.0851 6.88938 85.3674 6.55898C85.6622 6.20618 86.0607 6.02979 86.5638 6.02979C87.0559 6.02979 87.4298 6.20618 87.6824 6.55898C87.8864 6.83898 87.9873 7.18548 87.9873 7.59708ZM87.2614 7.40738C87.2672 7.18968 87.2171 7.00208 87.114 6.84388C86.9819 6.64018 86.7808 6.53798 86.5086 6.53798C86.2603 6.53798 86.0578 6.63738 85.9032 6.83688C85.7769 6.99578 85.7021 7.18548 85.6774 7.40738H87.2614Z" fill="white"/>
<path d="M38.9423 22.0529H37.2937L36.3906 19.3166H33.2517L32.3915 22.0529H30.7865L33.8964 12.7373H35.8172L38.9423 22.0529ZM36.1184 18.1686L35.3018 15.7361C35.2154 15.4876 35.0535 14.9024 34.8147 13.9812H34.7856C34.6905 14.3774 34.5374 14.9626 34.3268 15.7361L33.5247 18.1686H36.1184Z" fill="white"/>
<path d="M46.9398 18.6117C46.9398 19.7541 46.6197 20.6571 45.9794 21.32C45.4059 21.9101 44.6938 22.2048 43.8437 22.2048C42.9261 22.2048 42.267 21.887 41.8656 21.2514H41.8365V24.7899H40.2889V17.547C40.2889 16.8288 40.2693 16.0917 40.2315 15.3357H41.5926L41.679 16.4004H41.708C42.2242 15.5982 43.0074 15.1978 44.0586 15.1978C44.8803 15.1978 45.5663 15.5107 46.1151 16.1372C46.6654 16.7644 46.9398 17.589 46.9398 18.6117ZM45.3631 18.6663C45.3631 18.0125 45.2106 17.4735 44.9043 17.0493C44.5696 16.6069 44.1203 16.3857 43.557 16.3857C43.1751 16.3857 42.8281 16.5089 42.5182 16.7518C42.2075 16.9968 42.0042 17.3167 41.9091 17.7129C41.8612 17.8977 41.8373 18.0489 41.8373 18.1679V19.2879C41.8373 19.7765 41.9926 20.1888 42.3033 20.5255C42.614 20.8622 43.0176 21.0302 43.5141 21.0302C44.0971 21.0302 44.5508 20.8132 44.8753 20.3806C45.2005 19.9473 45.3631 19.3761 45.3631 18.6663Z" fill="white"/>
<path d="M54.9519 18.6117C54.9519 19.7541 54.6317 20.6571 53.9908 21.32C53.418 21.9101 52.7059 22.2048 51.8558 22.2048C50.9382 22.2048 50.2791 21.887 49.8784 21.2514H49.8493V24.7899H48.3017V17.547C48.3017 16.8288 48.2821 16.0917 48.2443 15.3357H49.6054L49.6918 16.4004H49.7209C50.2363 15.5982 51.0195 15.1978 52.0714 15.1978C52.8924 15.1978 53.5784 15.5107 54.1287 16.1372C54.6768 16.7644 54.9519 17.589 54.9519 18.6117ZM53.3752 18.6663C53.3752 18.0125 53.222 17.4735 52.9157 17.0493C52.581 16.6069 52.1331 16.3857 51.5691 16.3857C51.1865 16.3857 50.8402 16.5089 50.5295 16.7518C50.2188 16.9968 50.0163 17.3167 49.9212 17.7129C49.874 17.8977 49.8493 18.0489 49.8493 18.1679V19.2879C49.8493 19.7765 50.0047 20.1888 50.3139 20.5255C50.6246 20.8615 51.0283 21.0302 51.5262 21.0302C52.1092 21.0302 52.5629 20.8132 52.8873 20.3806C53.2126 19.9473 53.3752 19.3761 53.3752 18.6663Z" fill="white"/>
<path d="M63.9098 19.4403C63.9098 20.2327 63.6245 20.8774 63.0517 21.3751C62.4223 21.919 61.5461 22.1906 60.4202 22.1906C59.3807 22.1906 58.5473 21.9974 57.9165 21.6103L58.2751 20.3664C58.9546 20.7626 59.7001 20.9614 60.5124 20.9614C61.0953 20.9614 61.549 20.834 61.875 20.5806C62.1995 20.3272 62.3614 19.987 62.3614 19.5628C62.3614 19.1848 62.2278 18.8663 61.9599 18.608C61.6935 18.3497 61.2485 18.1096 60.6271 17.8877C58.9357 17.2794 58.0907 16.3883 58.0907 15.2165C58.0907 14.4507 58.3869 13.8228 58.98 13.3342C59.5709 12.8449 60.3592 12.6006 61.3451 12.6006C62.2242 12.6006 62.9544 12.7483 63.5374 13.043L63.1504 14.2596C62.606 13.974 61.9904 13.8312 61.3015 13.8312C60.7571 13.8312 60.3317 13.9607 60.0268 14.2183C59.7691 14.4486 59.6399 14.7293 59.6399 15.0618C59.6399 15.43 59.7872 15.7345 60.0834 15.9739C60.3411 16.1951 60.8093 16.4345 61.4888 16.6928C62.32 17.0155 62.9305 17.3928 63.3232 17.8254C63.7145 18.2566 63.9098 18.7963 63.9098 19.4403Z" fill="white"/>
<path d="M69.0268 16.4553H67.3209V19.7166C67.3209 20.5461 67.6215 20.9605 68.224 20.9605C68.5006 20.9605 68.7299 20.9374 68.9114 20.8912L68.9543 22.0245C68.6494 22.1344 68.2479 22.1897 67.7507 22.1897C67.1394 22.1897 66.6618 22.0098 66.317 21.6507C65.9736 21.2909 65.8008 20.6875 65.8008 19.8398V16.4539H64.7845V15.3339H65.8008V14.104L67.3209 13.6616V15.3339H69.0268V16.4553Z" fill="white"/>
<path d="M76.7238 18.6387C76.7238 19.6712 76.4175 20.5189 75.8062 21.1818C75.1652 21.8643 74.3144 22.2045 73.2539 22.2045C72.2318 22.2045 71.418 21.8776 70.8111 21.2238C70.2043 20.57 69.9008 19.7447 69.9008 18.75C69.9008 17.7091 70.213 16.8565 70.8394 16.1936C71.4645 15.53 72.308 15.1982 73.3686 15.1982C74.3907 15.1982 75.2131 15.5251 75.8338 16.1796C76.4276 16.8145 76.7238 17.6342 76.7238 18.6387ZM75.118 18.687C75.118 18.0675 74.9808 17.5362 74.7028 17.0931C74.3783 16.5569 73.9145 16.2895 73.3134 16.2895C72.6913 16.2895 72.2187 16.5576 71.8942 17.0931C71.6162 17.5369 71.479 18.0766 71.479 18.715C71.479 19.3345 71.6162 19.8658 71.8942 20.3082C72.2289 20.8444 72.6964 21.1118 73.2996 21.1118C73.8905 21.1118 74.3544 20.8388 74.689 20.2942C74.9743 19.8427 75.118 19.3058 75.118 18.687Z" fill="white"/>
<path d="M81.7545 16.6482C81.6013 16.6209 81.438 16.6069 81.2667 16.6069C80.7222 16.6069 80.3012 16.805 80.005 17.2019C79.7473 17.5519 79.6181 17.9943 79.6181 18.5284V22.0529H78.0711L78.0857 17.4511C78.0857 16.6769 78.0661 15.972 78.0276 15.3364H79.3756L79.4323 16.6216H79.4751C79.6384 16.1799 79.8961 15.8243 80.2489 15.5576C80.5937 15.3175 80.9661 15.1978 81.3676 15.1978C81.5106 15.1978 81.6398 15.2076 81.7545 15.2251V16.6482Z" fill="white"/>
<path d="M88.6762 18.3764C88.6762 18.6438 88.658 18.8692 88.6195 19.0533H83.9765C83.9947 19.7169 84.219 20.2244 84.6502 20.5744C85.0415 20.8873 85.5474 21.0441 86.1688 21.0441C86.8563 21.0441 87.4835 20.9384 88.0475 20.7263L88.29 21.7623C87.6308 22.0395 86.8526 22.1774 85.9547 22.1774C84.8745 22.1774 84.0266 21.8708 83.4096 21.2583C82.794 20.6458 82.4855 19.8233 82.4855 18.7915C82.4855 17.7786 82.7722 16.9351 83.3464 16.2624C83.9475 15.5442 84.7598 15.1851 85.7819 15.1851C86.7859 15.1851 87.5459 15.5442 88.062 16.2624C88.4707 16.8329 88.6762 17.5385 88.6762 18.3764ZM87.2004 17.9893C87.2105 17.5469 87.1096 17.1647 86.8998 16.842C86.632 16.4269 86.2204 16.2197 85.6665 16.2197C85.1605 16.2197 84.7489 16.422 84.4346 16.828C84.1769 17.1507 84.0237 17.5378 83.9765 17.9886H87.2004V17.9893Z" fill="white"/>
</svg>
