<svg width="98" height="28" viewBox="0 0 98 28" fill="none" xmlns="http://www.w3.org/2000/svg">
<path d="M94.3704 28H3.62963C1.63424 28 0 26.4241 0 24.5V3.5C0 1.57588 1.63424 4.76837e-07 3.62963 4.76837e-07H94.3704C96.3658 4.76837e-07 98 1.57588 98 3.5V24.5C98 26.4241 96.3658 28 94.3704 28Z" fill="black"/>
<path d="M94.3704 0.560875C96.0509 0.560875 97.4184 1.8795 97.4184 3.5V24.5C97.4184 26.1205 96.0509 27.4391 94.3704 27.4391H3.62963C1.94911 27.4391 0.581648 26.1205 0.581648 24.5V3.5C0.581648 1.8795 1.94911 0.560875 3.62963 0.560875H94.3704ZM94.3704 4.76837e-07H3.62963C1.63424 4.76837e-07 0 1.57588 0 3.5V24.5C0 26.4241 1.63424 28 3.62963 28H94.3704C96.3658 28 98 26.4241 98 24.5V3.5C98 1.57588 96.3658 4.76837e-07 94.3704 4.76837e-07Z" fill="#A6A6A6"/>
<path d="M7.03059 5.27743C6.81735 5.49268 6.69394 5.8278 6.69394 6.2618V21.7423C6.69394 22.1763 6.81735 22.5114 7.03059 22.7267L7.08322 22.7739L16.0792 14.1027V13.8979L7.08322 5.22668L7.03059 5.27743Z" fill="white"/>
<path d="M20.1635 16.9946L17.1681 14.1028V13.898L20.1671 11.0061L20.2343 11.0438L23.7858 12.9924C24.7994 13.5454 24.7994 14.4554 23.7858 15.0119L20.2343 16.957L20.1635 16.9946Z" fill="white"/>
<path d="M19.6898 17.4953L16.6237 14.5387L7.57501 23.2651C7.91166 23.6063 8.46064 23.6474 9.08494 23.3062L19.6898 17.4953Z" fill="white"/>
<path d="M19.6898 10.5053L9.08494 4.69442C8.46064 4.35667 7.91166 4.39779 7.57501 4.73904L16.6237 13.4619L19.6898 10.5053Z" fill="white"/>
<path d="M34.4216 7.1703C34.4216 7.7548 34.2401 8.22292 33.8826 8.57205C33.4715 8.98592 32.9362 9.19417 32.2801 9.19417C31.6531 9.19417 31.1177 8.98242 30.6785 8.56505C30.2385 8.14155 30.0189 7.6218 30.0189 6.99967C30.0189 6.37755 30.2385 5.8578 30.6785 5.4378C31.1177 5.01693 31.6531 4.80518 32.2801 4.80518C32.5923 4.80518 32.8899 4.8673 33.1739 4.9828C33.457 5.09918 33.6875 5.25668 33.8545 5.45093L33.4752 5.82018C33.1839 5.48855 32.7874 5.32493 32.2801 5.32493C31.8228 5.32493 31.4263 5.47893 31.0896 5.78955C30.7566 6.10105 30.5896 6.50442 30.5896 6.99967C30.5896 7.49492 30.7566 7.9018 31.0896 8.2133C31.4263 8.52042 31.8228 8.67792 32.2801 8.67792C32.7656 8.67792 33.1739 8.52042 33.496 8.2098C33.7084 8.00417 33.8291 7.72067 33.8608 7.35842H32.2801V6.85267H34.3889C34.4143 6.96205 34.4216 7.06792 34.4216 7.1703Z" fill="white" stroke="white" stroke-width="0.16" stroke-miterlimit="10"/>
<path d="M37.7672 5.41674H35.7863V6.74674H37.5721V7.25249H35.7863V8.58249H37.7672V9.09786H35.2256V4.90137H37.7672V5.41674Z" fill="white" stroke="white" stroke-width="0.16" stroke-miterlimit="10"/>
<path d="M40.1283 9.09786H39.5675V5.41674H38.3525V4.90137H41.3442V5.41674H40.1283V9.09786Z" fill="white" stroke="white" stroke-width="0.16" stroke-miterlimit="10"/>
<path d="M43.5093 9.09786V4.90137H44.0692V9.09786H43.5093Z" fill="white" stroke="white" stroke-width="0.16" stroke-miterlimit="10"/>
<path d="M46.5509 9.09786H45.9947V5.41674H44.7751V4.90137H47.7705V5.41674H46.5509V9.09786Z" fill="white" stroke="white" stroke-width="0.16" stroke-miterlimit="10"/>
<path d="M53.4345 8.55805C53.0053 8.98242 52.4735 9.19417 51.8393 9.19417C51.2014 9.19417 50.6696 8.98242 50.2404 8.55805C49.8121 8.13455 49.5989 7.6148 49.5989 6.99967C49.5989 6.38455 49.8121 5.8648 50.2404 5.4413C50.6696 5.01693 51.2014 4.80518 51.8393 4.80518C52.4699 4.80518 53.0017 5.01693 53.4309 5.4448C53.8628 5.8718 54.076 6.38805 54.076 6.99967C54.076 7.6148 53.8628 8.13455 53.4345 8.55805ZM50.6551 8.2063C50.9781 8.52042 51.371 8.67792 51.8393 8.67792C52.3039 8.67792 52.7004 8.52042 53.0198 8.2063C53.3419 7.89217 53.5053 7.4888 53.5053 6.99967C53.5053 6.51055 53.3419 6.10718 53.0198 5.79305C52.7004 5.47893 52.3039 5.32143 51.8393 5.32143C51.371 5.32143 50.9781 5.47893 50.6551 5.79305C50.333 6.10718 50.1696 6.51055 50.1696 6.99967C50.1696 7.4888 50.333 7.89217 50.6551 8.2063Z" fill="white" stroke="white" stroke-width="0.16" stroke-miterlimit="10"/>
<path d="M54.8628 9.09786V4.90137H55.5433L57.6594 8.16512H57.6839L57.6594 7.35836V4.90137H58.2193V9.09786H57.6349L55.419 5.67312H55.3945L55.419 6.48337V9.09786H54.8628Z" fill="white" stroke="white" stroke-width="0.16" stroke-miterlimit="10"/>
<path d="M49.4609 15.227C47.7559 15.227 46.3631 16.4782 46.3631 18.2046C46.3631 19.917 47.7559 21.1814 49.4609 21.1814C51.1696 21.1814 52.5625 19.917 52.5625 18.2046C52.5625 16.4782 51.1696 15.227 49.4609 15.227ZM49.4609 20.0089C48.5254 20.0089 47.7205 19.2642 47.7205 18.2046C47.7205 17.131 48.5254 16.3995 49.4609 16.3995C50.3965 16.3995 51.205 17.131 51.205 18.2046C51.205 19.2642 50.3965 20.0089 49.4609 20.0089ZM42.7017 15.227C40.993 15.227 39.6038 16.4782 39.6038 18.2046C39.6038 19.917 40.993 21.1814 42.7017 21.1814C44.4094 21.1814 45.7996 19.917 45.7996 18.2046C45.7996 16.4782 44.4094 15.227 42.7017 15.227ZM42.7017 20.0089C41.7652 20.0089 40.9576 19.2642 40.9576 18.2046C40.9576 17.131 41.7652 16.3995 42.7017 16.3995C43.6372 16.3995 44.4421 17.131 44.4421 18.2046C44.4421 19.2642 43.6372 20.0089 42.7017 20.0089ZM34.6584 16.1396V17.4049H37.7917C37.7 18.1119 37.455 18.6316 37.0794 18.9939C36.622 19.4314 35.9097 19.917 34.6584 19.917C32.7302 19.917 31.2202 18.4164 31.2202 16.557C31.2202 14.6976 32.7302 13.197 34.6584 13.197C35.701 13.197 36.4596 13.5899 37.0195 14.0991L37.9441 13.2075C37.161 12.4865 36.1193 11.9326 34.6584 11.9326C32.0142 11.9326 29.792 14.0072 29.792 16.557C29.792 19.1067 32.0142 21.1814 34.6584 21.1814C36.0876 21.1814 37.161 20.7299 38.0049 19.8829C38.8697 19.049 39.1392 17.8765 39.1392 16.9297C39.1392 16.6357 39.1138 16.3654 39.0684 16.1396H34.6584ZM67.5483 17.1205C67.2933 16.4546 66.5066 15.227 64.9041 15.227C63.3161 15.227 61.9941 16.4336 61.9941 18.2046C61.9941 19.8724 63.3025 21.1814 65.0566 21.1814C66.4748 21.1814 67.2933 20.3475 67.63 19.8619L66.5774 19.1855C66.2262 19.6807 65.748 20.0089 65.0566 20.0089C64.3696 20.0089 63.8769 19.7052 63.5611 19.1067L67.6908 17.4591L67.5483 17.1205ZM63.3379 18.1119C63.3025 16.9639 64.2626 16.3759 64.9504 16.3759C65.4894 16.3759 65.9467 16.6357 66.0992 17.0076L63.3379 18.1119ZM59.9814 21.0002H61.3389V12.2502H59.9814V21.0002ZM57.7583 15.8902H57.7129C57.408 15.542 56.8264 15.227 56.0896 15.227C54.5433 15.227 53.1296 16.536 53.1296 18.2142C53.1296 19.8829 54.5433 21.1814 56.0896 21.1814C56.8264 21.1814 57.408 20.8637 57.7129 20.505H57.7583V20.932C57.7583 22.0704 57.1276 22.682 56.1104 22.682C55.2811 22.682 54.7666 22.1045 54.5542 21.6189L53.3737 22.094C53.714 22.8832 54.615 23.8545 56.1104 23.8545C57.702 23.8545 59.045 22.9515 59.045 20.7544V15.4081H57.7583V15.8902ZM56.2057 20.0089C55.2702 20.0089 54.4871 19.2537 54.4871 18.2142C54.4871 17.1651 55.2702 16.3995 56.2057 16.3995C57.1276 16.3995 57.8545 17.1651 57.8545 18.2142C57.8545 19.2537 57.1276 20.0089 56.2057 20.0089ZM73.9038 12.2502H70.6571V21.0002H72.0109V17.6849H73.9038C75.4073 17.6849 76.8819 16.6357 76.8819 14.9671C76.8819 13.2994 75.4037 12.2502 73.9038 12.2502ZM73.9392 16.4677H72.0109V13.4674H73.9392C74.95 13.4674 75.5271 14.2767 75.5271 14.9671C75.5271 15.6444 74.95 16.4677 73.9392 16.4677ZM82.3082 15.2104C81.33 15.2104 80.3128 15.6269 79.8945 16.55L81.0959 17.0356C81.3545 16.55 81.83 16.3925 82.3327 16.3925C83.035 16.3925 83.7473 16.7994 83.7582 17.5177V17.6096C83.5132 17.4731 82.9887 17.271 82.3436 17.271C81.0496 17.271 79.7311 17.9579 79.7311 19.2397C79.7311 20.4122 80.791 21.1674 81.9824 21.1674C82.8935 21.1674 83.3962 20.771 83.7119 20.3099H83.7582V20.9862H85.0658V17.6297C85.0658 16.0784 83.8644 15.2104 82.3082 15.2104ZM82.1448 20.0054C81.702 20.0054 81.085 19.7936 81.085 19.2642C81.085 18.587 81.8545 18.3271 82.5205 18.3271C83.1167 18.3271 83.3962 18.454 83.7582 18.6211C83.652 19.4314 82.9288 20.0054 82.1448 20.0054ZM89.8297 15.402L88.2735 19.1951H88.2272L86.6184 15.402H85.1583L87.5757 20.7027L86.1964 23.6524H87.6111L91.336 15.402H89.8297ZM77.6259 21.0002H78.9834V12.2502H77.6259V21.0002Z" fill="white"/>
</svg>
