<svg width="22" height="26" viewBox="0 0 22 26" fill="none" xmlns="http://www.w3.org/2000/svg">
<path d="M3.125 10.9593H3.78418C4.99023 13.7193 7.73438 15.6489 10.9375 15.6489C14.1406 15.6489 16.8848 13.7193 18.0908 10.9593H18.75C19.1797 10.9593 19.5312 10.6076 19.5312 10.1777V5.48805C19.5312 5.05817 19.1797 4.70645 18.75 4.70645H18.0908C16.8848 1.9464 14.1406 0.0168152 10.9375 0.0168152C7.73438 0.0168152 4.99023 1.9464 3.78418 4.70645H3.125C2.69531 4.70645 2.34375 5.05817 2.34375 5.48805V10.1777C2.34375 10.6076 2.69531 10.9593 3.125 10.9593ZM5.07812 6.66046C5.07812 5.58087 6.12793 4.70645 7.42188 4.70645H14.4531C15.7471 4.70645 16.7969 5.58087 16.7969 6.66046V7.83287C16.7969 10.4219 14.6973 12.5225 12.1094 12.5225H9.76562C7.17773 12.5225 5.07812 10.4219 5.07812 7.83287V6.66046ZM8.59375 10.1777L9.17969 8.41907L10.9375 7.83287L9.17969 7.24666L8.59375 5.48805L8.00781 7.24666L6.25 7.83287L8.00781 8.41907L8.59375 10.1777ZM15.9961 15.7173C14.5361 16.6601 12.8027 17.2121 10.9375 17.2121C9.07227 17.2121 7.33887 16.6601 5.87891 15.7173C2.58301 16.0641 0 18.8242 0 22.2144V22.6834C0 23.9779 1.0498 25.0282 2.34375 25.0282H6.25V21.9018C6.25 21.0371 6.94824 20.3386 7.8125 20.3386H14.0625C14.9268 20.3386 15.625 21.0371 15.625 21.9018V25.0282H19.5312C20.8252 25.0282 21.875 23.9779 21.875 22.6834V22.2144C21.875 18.8242 19.292 16.0641 15.9961 15.7173ZM13.2812 21.9018C12.8516 21.9018 12.5 22.2535 12.5 22.6834C12.5 23.1133 12.8516 23.465 13.2812 23.465C13.7109 23.465 14.0625 23.1133 14.0625 22.6834C14.0625 22.2535 13.7109 21.9018 13.2812 21.9018ZM8.59375 21.9018C8.16406 21.9018 7.8125 22.2535 7.8125 22.6834V25.0282H9.375V22.6834C9.375 22.2535 9.02344 21.9018 8.59375 21.9018Z" fill="black"/>
</svg>
