<svg width="15" height="16" viewBox="0 0 15 16" fill="none" xmlns="http://www.w3.org/2000/svg">
<path d="M14.796 12.9935L11.8749 10.0715C11.743 9.93963 11.5643 9.86637 11.3768 9.86637H10.8992C11.7079 8.83182 12.1884 7.53057 12.1884 6.11503C12.1884 2.74762 9.46065 0.019104 6.0942 0.019104C2.72774 0.019104 0 2.74762 0 6.11503C0 9.48244 2.72774 12.211 6.0942 12.211C7.50934 12.211 8.81021 11.7303 9.84447 10.9214V11.3991C9.84447 11.5867 9.91772 11.7655 10.0496 11.8974L12.9707 14.8193C13.2461 15.0948 13.6914 15.0948 13.9639 14.8193L14.7931 13.9899C15.0685 13.7144 15.0685 13.2689 14.796 12.9935ZM6.0942 9.86637C4.02276 9.86637 2.34392 8.18999 2.34392 6.11503C2.34392 4.043 4.01982 2.36369 6.0942 2.36369C8.16564 2.36369 9.84447 4.04007 9.84447 6.11503C9.84447 8.18706 8.16857 9.86637 6.0942 9.86637Z" fill="black"/>
</svg>
